# xmcd
#
# Track frame offsets:
#	150
#	11271
#	25301
#	36488
#	46743
#	58921
#	73371
#	84139
#	98896
#	113172
#	122249
#	134819
#	145907
#	157010
#
# Disc length: 2245 seconds
#
# Revision: 0
# Processed by: cddbd v1.4b42PL1 Copyright (c) Steve Scherf et al.
# Submitted via: audiograbber 1.80
#
DISCID=c908c30e
DTITLE=Frankie - Lane
DYEAR=1900
DGENRE=
TTITLE0=Love is a golden ring
TTITLE1=Don't fence me in
TTITLE2=Answer me
TTITLE3=I believe
TTITLE4=High Noon
TTITLE5=Jealousy
TTITLE6=Hummingbird
TTITLE7=Jezabel
TTITLE8=There must be a reason
TTITLE9=Rawhide
TTITLE10=Moonlight Gambler
TTITLE11=Rose,Rose I love you
TTITLE12=Mule Train
TTITLE13=Strange lady in town
EXTD=
EXTT0=
EXTT1=
EXTT2=
EXTT3=
EXTT4=
EXTT5=
EXTT6=
EXTT7=
EXTT8=
EXTT9=
EXTT10=
EXTT11=
EXTT12=
EXTT13=
PLAYORDER=
